<?xml version="1.0" encoding="UTF-8" standalone="no"?>
<!-- Created with Inkscape (http://www.inkscape.org/) -->

<svg
   version="1.1"
   id="svg1"
   width="768.25488"
   height="768.25476"
   viewBox="0 0 768.25488 768.25474"
   sodipodi:docname="test_logo.svg"
   inkscape:version="1.3 (0e150ed6c4, 2023-07-21)"
   inkscape:dataloss="true"
   xmlns:inkscape="http://www.inkscape.org/namespaces/inkscape"
   xmlns:sodipodi="http://sodipodi.sourceforge.net/DTD/sodipodi-0.dtd"
   xmlns="http://www.w3.org/2000/svg"
   xmlns:svg="http://www.w3.org/2000/svg">
  <defs
     id="defs1" />
  <sodipodi:namedview
     id="namedview1"
     pagecolor="#505050"
     bordercolor="#ffffff"
     borderopacity="1"
     inkscape:showpageshadow="0"
     inkscape:pageopacity="0"
     inkscape:pagecheckerboard="1"
     inkscape:deskcolor="#505050"
     inkscape:zoom="0.67368492"
     inkscape:cx="444.56984"
     inkscape:cy="842.38193"
     inkscape:window-width="1920"
     inkscape:window-height="1009"
     inkscape:window-x="-8"
     inkscape:window-y="-8"
     inkscape:window-maximized="1"
     inkscape:current-layer="g1"
     showgrid="false" />
  <g
     inkscape:groupmode="layer"
     inkscape:label="Image"
     id="g1"
     transform="translate(-189.68501,-441.80989)">
    <path
       id="path95-4"
       style="display:inline;fill:#976906;fill-opacity:1;stroke:none"
       d="m 575.09373,529.94695 c 0,0 -1.83763,1.0852 -5.03516,3.2305 -3.1975,2.1452 -7.75464,5.3516 -13.1914,9.5957 -2.71839,2.122 -5.65734,4.5026 -8.75586,7.1406 -3.09853,2.6379 -6.35792,5.5335 -9.7168,8.6816 -3.35888,3.1481 -6.81696,6.5488 -10.31641,10.2012 -3.49942,3.6524 -7.04033,7.5561 -10.56054,11.707 -3.52024,4.151 -7.02018,8.5498 -10.44141,13.1934 -1.70586,2.3153 -3.30982,4.8738 -4.96875,7.3105 -3.95564,-1.9125 -10.10523,-4.7869 -13.55859,-6.2168 -3.82913,-1.5867 -7.71005,-3.048 -11.63477,-4.3808 -3.92472,-1.3318 -7.89305,-2.5352 -11.89648,-3.6074 -3.76778,-1.0021 -7.56646,-1.888 -11.38867,-2.6563 -0.23948,-0.056 -0.47908,-0.1124 -0.71875,-0.168 -4.0651,-0.8087 -8.15635,-1.4842 -12.26563,-2.0254 -0.43797,-0.044 -0.87619,-0.088 -1.31445,-0.1289 -0.003,0 -0.005,0.01 -0.008,0.012 -0.019,0 -2.14331,-0.1545 -4.8125,-0.83 -1.34061,-0.3393 -2.81318,-0.8104 -4.21485,-1.4571 -0.70082,-0.3233 -1.38543,-0.69 -2.02539,-1.1074 -0.47682,-0.311 -0.89644,-0.6799 -1.31445,-1.0488 -0.0542,0 -0.75035,-0.082 -0.75781,-0.082 -0.0549,0.036 -0.10192,0.1009 -0.15625,0.1386 -0.64494,0.4479 -1.27952,0.9348 -1.84571,1.6563 -0.70858,0.903 -1.35676,2.0072 -1.95117,3.2832 -0.5944,1.276 -1.13522,2.7234 -1.625,4.3105 -0.48977,1.5872 -0.9295,3.316 -1.32422,5.1524 -0.7894,3.6727 -1.3987,7.7818 -1.86523,12.0801 -0.46656,4.2983 -0.78957,8.7859 -1.00977,13.2148 -0.22019,4.4288 -0.33635,8.801 -0.38672,12.8652 -0.0504,4.0643 -0.0365,7.8228 0.008,11.0274 0.0608,4.54037 0.13669,5.898 0.19921,7.51172 -0.044,0.4562 -0.13973,0.90665 -0.17968,1.36328 -0.38936,4.44958 -0.58392,8.91782 -0.58399,13.38867 10e-6,4.47114 0.19463,8.93875 0.58399,13.38867 0.38931,4.44996 0.97352,8.88389 1.75,13.28711 0.7766,4.40293 1.74407,8.76765 2.90039,13.08203 1.1563,4.31443 2.50187,8.58011 4.03125,12.78125 1.52886,4.20129 3.23952,8.33265 5.12695,12.38086 1.88744,4.04823 3.95232,8.01474 6.1875,11.88672 2.23566,3.87192 4.63904,7.6439 7.20117,11.30273 2.56221,3.65891 5.28413,7.20604 8.15821,10.63086 2.87379,3.42494 5.8943,6.72248 9.05273,9.88086 3.15843,3.15845 6.45594,6.17886 9.88086,9.05274 3.42487,2.87399 6.97197,5.59599 10.63086,8.1582 3.65888,2.56221 7.43086,4.96552 11.30273,7.20117 3.87196,2.23552 7.83854,4.29974 11.88672,6.1875 4.04825,1.88776 8.17959,3.59972 12.38086,5.12891 4.20154,1.52909 8.46654,2.87335 12.78125,4.0293 4.31475,1.15598 8.68074,2.12411 13.08399,2.90039 0.42202,0.0421 0.8452,0.0728 1.26757,0.11132 0.7875,0.0719 1.57484,0.14737 2.36329,0.20704 2.77525,0.31935 5.55916,0.56296 8.34765,0.73046 v 7.44336 19.34375 57.09375 3.37696 c -3.24553,-3.89704 -6.54308,-7.53693 -9.89062,-10.93555 -3.34759,-3.39862 -6.7459,-6.55672 -10.19336,-9.48828 -3.44751,-2.93157 -6.94495,-5.63699 -10.49024,-8.13281 -3.54526,-2.49587 -7.13837,-4.78154 -10.77929,-6.87305 -3.64097,-2.09151 -7.32996,-3.98853 -11.06446,-5.70703 -3.73447,-1.71851 -7.51395,-3.25986 -11.33984,-4.63672 -3.82592,-1.37686 -7.69809,-2.58969 -11.61328,-3.65625 -3.91522,-1.06658 -7.87456,-1.9858 -11.87696,-2.77344 -4.00236,-0.78762 -8.04735,-1.44434 -12.13476,-1.98437 -4.08744,-0.54005 -8.21834,-0.9633 -12.38867,-1.28711 -4.17036,-0.32381 -8.38166,-0.54857 -12.63282,-0.6875 -4.25112,-0.13893 -8.54126,-0.19234 -12.87109,-0.17774 -8.65964,0.0292 -17.47591,0.33389 -26.4375,0.78907 -8.96158,0.45519 -18.06983,1.06105 -27.31641,1.6914 0,0 0.14794,3.67324 0.79883,10.17578 0.32545,3.2513 0.77689,7.20936 1.39844,11.76953 0.62155,4.56022 1.41336,9.72291 2.41992,15.38086 1.00657,5.658 2.22653,11.81283 3.70703,18.35743 1.48051,6.54459 3.22036,13.47917 5.26367,20.69921 1.02169,3.61005 2.11977,7.29197 3.29883,11.03125 1.17907,3.73933 2.43955,7.53671 3.78711,11.37891 1.34757,3.8422 2.78337,7.72974 4.31055,11.64844 1.52717,3.91866 3.14538,7.8691 4.86328,11.83789 1.71791,3.96876 3.53533,7.95672 5.45508,11.94922 1.91975,3.99246 3.94346,7.99066 6.07617,11.98047 2.13271,3.98976 4.37368,7.97093 6.73047,11.93163 2.35678,3.9607 4.82994,7.9016 7.42187,11.8066 2.59198,3.9053 5.30434,7.7765 8.14258,11.5996 2.83828,3.8233 5.80275,7.5994 8.89844,11.3145 3.09569,3.7151 6.32132,7.3688 9.68555,10.9492 3.36419,3.5805 6.86592,7.0865 10.50976,10.5059 3.64387,3.4194 7.43061,6.7524 11.36524,9.9844 3.9346,3.2316 8.01742,6.3627 12.2539,9.3808 4.23651,3.0181 8.62824,5.9233 13.17774,8.7012 4.54946,2.7779 9.25725,5.4301 14.13086,7.9414 4.87357,2.5113 9.9123,4.8814 15.12109,7.0996 5.20882,2.2182 10.5894,4.2848 16.14453,6.1836 5.19054,1.7742 10.56611,3.3707 16.06836,4.8437 0.38653,0.1034 0.74082,0.238 1.12891,0.3399 5.91257,1.553 12.00793,2.9266 18.28906,4.1074 6.28113,-1.1808 12.37649,-2.5544 18.28906,-4.1074 0.38809,-0.1019 0.74238,-0.2365 1.12891,-0.3399 5.50224,-1.473 10.87783,-3.0695 16.06836,-4.8437 5.55511,-1.8988 10.93572,-3.9654 16.14453,-6.1836 5.20878,-2.2182 10.24753,-4.5883 15.12109,-7.0996 4.8736,-2.5113 9.58141,-5.1635 14.13086,-7.9414 4.5495,-2.7779 8.94124,-5.6831 13.17774,-8.7012 4.23647,-3.0181 8.31931,-6.1492 12.2539,-9.3808 3.93463,-3.232 7.72138,-6.565 11.36524,-9.9844 3.64383,-3.4194 7.14558,-6.9254 10.50976,-10.5059 3.36423,-3.5804 6.58987,-7.2341 9.68555,-10.9492 3.09568,-3.7151 6.06017,-7.4912 8.89845,-11.3145 2.8382,-3.8231 5.5506,-7.6943 8.1426,-11.5996 2.5919,-3.905 5.0651,-7.8459 7.4218,-11.8066 2.3568,-3.9607 4.5978,-7.94187 6.7305,-11.93163 2.1327,-3.9898 4.1564,-7.98802 6.0762,-11.98047 1.9197,-3.99249 3.7372,-7.98047 5.4551,-11.94922 1.7179,-3.96878 3.3361,-7.91924 4.8632,-11.83789 1.5272,-3.91869 2.963,-7.80624 4.3106,-11.64844 1.3475,-3.8422 2.608,-7.63959 3.7871,-11.37891 1.179,-3.73928 2.2772,-7.4212 3.2988,-11.03125 2.0434,-7.22003 3.7832,-14.15464 5.2637,-20.69921 1.4805,-6.54458 2.7005,-12.69944 3.707,-18.35743 1.0066,-5.65794 1.7984,-10.82065 2.4199,-15.38086 0.6216,-4.56016 1.073,-8.51824 1.3985,-11.76953 0.6509,-6.50253 0.7988,-10.17578 0.7988,-10.17578 -9.2465,-0.63035 -18.3548,-1.23621 -27.3164,-1.6914 -8.9616,-0.45518 -17.7779,-0.75987 -26.4375,-0.78907 -4.3298,-0.0146 -8.62,0.0388 -12.87108,0.17774 -4.25116,0.13893 -8.46246,0.36369 -12.63282,0.6875 -4.17032,0.32381 -8.30124,0.74706 -12.38867,1.28711 -4.0874,0.54003 -8.13241,1.19675 -12.13476,1.98437 -4.00239,0.78763 -7.96175,1.70687 -11.87696,2.77344 -3.91518,1.06656 -7.78736,2.27939 -11.61328,3.65625 -3.82588,1.37686 -7.60538,2.91821 -11.33984,4.63672 -3.7345,1.7185 -7.4235,3.61552 -11.06446,5.70703 -3.64092,2.0915 -7.23404,4.37719 -10.77929,6.87305 -3.54528,2.49581 -7.04274,5.20125 -10.49024,8.13281 -3.44745,2.93155 -6.84578,6.08967 -10.19336,9.48828 -3.34754,3.39861 -6.64509,7.03852 -9.89062,10.93555 v -66.02735 l 0.26172,-20.41797 6.17773,-0.81054 c 4.0178,-0.19277 8.02732,-0.54337 12.01758,-1.05078 4.4032,-0.77627 8.76932,-1.74442 13.08398,-2.90039 4.31475,-1.15594 8.57983,-2.50023 12.78125,-4.0293 4.2013,-1.52918 8.3327,-3.24115 12.38086,-5.12891 4.04823,-1.88774 8.01485,-3.952 11.88672,-6.1875 3.8719,-2.23564 7.64387,-4.63898 11.30274,-7.20117 3.65881,-2.56219 7.20599,-5.28424 10.63086,-8.1582 3.42483,-2.87385 6.72241,-5.8943 9.88086,-9.05274 3.15836,-3.15836 6.17889,-6.45594 9.05273,-9.88086 2.87404,-3.42479 5.59608,-6.97197 8.1582,-10.63086 2.5622,-3.65881 4.96561,-7.43084 7.20118,-11.30273 2.23547,-3.87192 4.29977,-7.83851 6.18747,-11.88672 1.8878,-4.04819 3.5998,-8.17957 5.1289,-12.38086 1.5291,-4.20113 2.8733,-8.46685 4.0293,-12.78125 1.156,-4.31436 2.1241,-8.67916 2.9004,-13.08203 0.7764,-4.40319 1.3607,-8.83716 1.75,-13.28711 0.3894,-4.44991 0.584,-8.91757 0.584,-13.38867 -5e-4,-3.21703 -0.1022,-6.43396 -0.3047,-9.64453 0,0 0.1858,-4.197 0.2676,-10.60742 0.041,-3.20526 0.054,-6.96422 0.01,-11.02932 -0.048,-4.0651 -0.1575,-8.4374 -0.3672,-12.8672 -0.2097,-4.4297 -0.5186,-8.9176 -0.9629,-13.2168 -0.4443,-4.2991 -1.0255,-8.4105 -1.7773,-12.084 -0.3759,-1.8367 -0.7933,-3.5649 -1.2598,-5.1523 -0.4665,-1.5875 -0.9808,-3.0343 -1.5469,-4.3105 -0.5661,-1.2763 -1.1845,-2.382 -1.8594,-3.2852 -0.6748,-0.9032 -1.4064,-1.6041 -2.1992,-2.0723 -0.5031,0.5231 -1.0721,0.9907 -1.6816,1.4082 -0.6095,0.4175 -1.2602,0.7841 -1.9278,1.1075 -1.3349,0.6468 -2.7388,1.1177 -4.0156,1.457 -2.55358,0.6786 -4.60349,0.834 -4.60349,0.834 0,0 -3.24842,0.1877 -8.86132,0.9629 -2.80648,0.3875 -6.2055,0.923 -10.08399,1.6543 -3.87845,0.7312 -8.23709,1.659 -12.96679,2.8339 -4.72966,1.175 -9.83135,2.5959 -15.19141,4.3145 -2.68005,0.8593 -5.4264,1.7946 -8.22266,2.8086 -2.7962,1.0139 -5.64251,2.108 -8.52734,3.2891 -1.73211,0.7091 -3.498,1.5087 -5.25586,2.2871 -0.085,0.038 -0.16891,0.074 -0.25391,0.1113 -0.0288,-0.042 -0.0571,-0.085 -0.0859,-0.127 -1.27711,-1.8533 -2.49312,-3.83 -3.79688,-5.6191 -3.41962,-4.6924 -6.91939,-9.1622 -10.43945,-13.4004 -3.5201,-4.2382 -7.06008,-8.2465 -10.56055,-12.0137 -3.50046,-3.7671 -6.96154,-7.2949 -10.32227,-10.5742 -3.36067,-3.2792 -6.62178,-6.3093 -9.72265,-9.084 -3.10088,-2.7747 -6.04279,-5.2935 -8.76367,-7.5468 -5.44184,-4.5066 -10.00373,-7.955 -13.20508,-10.2754 -3.20198,-2.3205 -5.04297,-3.5137 -5.04297,-3.5137 z m 0.0879,50.834 c 0.24444,0.2635 2.15866,2.3172 5.70117,6.4336 1.87875,2.183 4.12467,4.8424 6.63477,7.9101 2.51009,3.0677 5.2846,6.545 8.2207,10.3594 2.9361,3.8144 6.03466,7.9674 9.19141,12.3906 1.38807,1.945 2.79511,4.1167 4.19726,6.1602 -0.31426,0.218 -0.62904,0.4331 -0.93945,0.6679 -2.91386,2.2043 -5.79601,4.5263 -8.63281,6.9727 -2.83686,2.4463 -5.6291,5.0178 -8.36133,7.71876 -2.73224,2.70094 -5.40584,5.53189 -8.00586,8.5 -2.60002,2.96805 -5.1262,6.07459 -7.56641,9.32226 -0.73379,0.97663 -1.4014,2.0579 -2.11914,3.06055 -2.13625,-3.32408 -4.34604,-6.53916 -6.64843,-9.60352 -2.44022,-3.24767 -4.96637,-6.3522 -7.56641,-9.32031 -2.60004,-2.96814 -5.2736,-5.80094 -8.00586,-8.50194 -2.73226,-2.701 -5.52445,-5.2704 -8.36133,-7.7168 -0.61354,-0.5291 -1.24164,-1.0146 -1.86719,-1.5078 1.27065,-1.8155 2.54892,-3.765 3.80665,-5.502 3.22383,-4.4522 6.38425,-8.6328 9.3789,-12.4726 2.99465,-3.8398 5.82319,-7.3375 8.38086,-10.4258 2.55767,-3.0883 4.84493,-5.767 6.75781,-7.9649 3.60838,-4.1458 5.5576,-6.2167 5.80469,-6.4804 z m -124.63867,42.7246 c 3.74109,0.711 7.34916,1.565 10.83008,2.5527 3.48089,0.9877 6.83448,2.1084 10.06445,3.3535 3.22997,1.2452 6.3379,2.6144 9.32617,4.0977 0.81251,0.4033 1.54679,0.8807 2.3418,1.3008 -1.04923,2.3751 -2.08955,4.76087 -3.05859,7.21286 -1.20275,3.04339 -2.34053,6.14556 -3.40626,9.30664 -1.0657,3.16111 -2.05896,6.38207 -2.97265,9.66016 -0.91369,3.27809 -1.74745,6.61348 -2.49414,10.00781 -0.74671,3.39436 -1.40597,6.84755 -1.97071,10.35742 -0.56471,3.50989 -1.0365,7.07648 -1.40429,10.70118 -0.3678,3.62467 -0.63319,7.3081 -0.78906,11.04687 -0.15588,3.73877 -0.20187,7.5346 -0.13086,11.38672 0.0696,3.77511 0.25882,7.60695 0.56054,11.49023 -0.0888,-0.11221 -0.19507,-0.21964 -0.2832,-0.33203 -1.58111,-2.01634 -3.0529,-4.06183 -4.42187,-6.12695 -1.36895,-2.06512 -2.63646,-4.14948 -3.80665,-6.25 -1.17015,-2.10052 -2.24377,-4.2173 -3.22851,-6.33984 -0.98476,-2.12255 -1.88068,-4.25161 -2.69336,-6.38282 -0.81269,-2.13118 -1.54135,-4.26414 -2.19531,-6.39062 -0.65398,-2.12649 -1.23356,-4.24708 -1.74219,-6.35547 -0.50863,-2.10839 -0.94758,-4.20433 -1.32422,-6.28125 -0.37664,-2.07693 -0.68926,-4.13393 -0.94726,-6.16602 -0.51599,-4.06414 -0.80804,-8.02553 -0.92969,-11.83007 -0.12166,-3.80456 -0.074,-7.45269 0.0918,-10.89063 0.16583,-3.43794 0.44851,-6.66651 0.79493,-9.63086 0.3464,-2.96434 0.7576,-5.66503 1.17773,-8.04883 0.42013,-2.3837 0.84936,-4.4503 1.23633,-6.1465 0.77393,-3.3923 1.375,-5.3027 1.375,-5.3027 z m 246.53906,0.5664 c 0,0 0.60107,1.9104 1.375,5.3027 0.38697,1.6962 0.8162,3.7628 1.23633,6.1465 0.42013,2.3838 0.83133,5.08449 1.17773,8.04884 0.34642,2.96432 0.6291,6.1929 0.79493,9.63086 0.16581,3.43792 0.21342,7.08609 0.0918,10.89062 -0.12165,3.80455 -0.41367,7.76591 -0.92969,11.83008 -0.25797,2.03208 -0.57062,4.0891 -0.94726,6.16602 -0.37664,2.07691 -0.81559,4.17286 -1.32422,6.28125 -0.50863,2.10838 -1.08821,4.22901 -1.74219,6.35546 -0.65396,2.12649 -1.38262,4.25942 -2.19531,6.39063 -0.81268,2.1312 -1.7086,4.26026 -2.69336,6.38281 -0.98474,2.12255 -2.05836,4.23933 -3.22851,6.33985 -1.17019,2.10051 -2.43767,4.18489 -3.80665,6.25 -1.36894,2.0651 -2.84076,4.11061 -4.42187,6.12695 0.31287,-3.96477 0.50285,-7.87247 0.57813,-11.72461 0.0753,-3.85214 0.0362,-7.64793 -0.11133,-11.38672 -0.14758,-3.73879 -0.40401,-7.42219 -0.75977,-11.04687 -0.35575,-3.62471 -0.81015,-7.19128 -1.35937,-10.70118 -0.54924,-3.50989 -1.1919,-6.96305 -1.91993,-10.35742 -0.728,-3.39435 -1.54148,-6.72971 -2.43359,-10.00781 -0.89211,-3.2781 -1.86279,-6.49904 -2.9043,-9.66016 -1.04149,-3.1611 -2.15389,-6.26324 -3.33007,-9.30664 -0.92967,-2.40549 -1.92995,-4.74466 -2.93555,-7.07616 0.53628,-0.2776 1.02421,-0.601 1.56836,-0.8711 2.98827,-1.4833 6.0962,-2.8525 9.32617,-4.0977 3.22997,-1.2451 6.58356,-2.3658 10.06445,-3.3535 3.48092,-0.9877 7.08899,-1.8417 10.83008,-2.5527 z m -65.41211,38.10155 c 0.15279,0.31631 0.33913,0.6188 0.49024,0.93555 1.29329,2.71103 2.52568,5.43796 3.68164,8.17187 1.15594,2.73394 2.23559,5.47527 3.22851,8.21485 0.99294,2.73957 1.89888,5.47709 2.70313,8.20508 0.80424,2.72798 1.50778,5.44537 2.09765,8.14453 0.58989,2.69916 1.06616,5.38011 1.41602,8.0332 0.34985,2.6531 0.57209,5.27936 0.65625,7.86914 0.0842,2.58979 0.0295,5.1431 -0.17774,7.65235 -0.20718,2.50922 -0.56559,4.97331 -1.08984,7.38476 -0.52424,2.41145 -1.21508,4.76998 -2.08203,7.06641 -0.86695,2.29642 -1.91118,4.53116 -3.14648,6.69531 -1.23533,2.16415 -2.66166,4.25879 -4.29102,6.27344 -1.62936,2.01464 -3.46069,3.94899 -5.50977,5.79687 -2.04905,1.8479 -4.3161,3.60953 -6.81054,5.27344 -2.49446,1.66391 -5.2181,3.23069 -8.1836,4.69336 -2.96548,1.46266 -6.17256,2.82026 -9.63476,4.06445 -3.46221,1.2442 -7.17949,2.37628 -11.16406,3.38477 0.60094,-7.02347 0.78428,-8.88157 0.82617,-9.57227 0.0419,-0.69069 -0.0569,-0.21499 -0.0195,-2.57226 0.0373,-2.35729 0.34249,-5.03707 0.71289,-7.74219 0.37039,-2.70512 0.80505,-5.43566 1.10156,-7.89258 0.14825,-1.22845 0.37486,-2.33947 0.65039,-3.40234 0.27553,-1.06288 0.60064,-2.07695 0.95117,-3.11524 0.70106,-2.07656 1.50011,-4.24612 2.1875,-7.07031 0.6874,-2.8242 1.43326,-5.65935 2.24219,-8.49609 0.80893,-2.83677 1.67943,-5.67385 2.61914,-8.50391 0.93971,-2.83006 1.94763,-5.65297 3.02734,-8.45703 1.07973,-2.80406 2.23196,-5.59084 3.46094,-8.34961 1.22899,-2.75877 2.53438,-5.48942 3.92188,-8.18359 1.38746,-2.6942 2.85687,-5.3506 4.41211,-7.96094 1.55521,-2.61034 3.19746,-5.17445 4.92968,-7.68164 1.73223,-2.5072 3.5542,-4.95899 5.47266,-7.34375 0.41875,-0.52054 0.89237,-1.00157 1.32031,-1.51563 z m -114.41601,0.92578 c 0.007,0.008 0.0149,0.0152 0.0215,0.0234 1.91846,2.38476 3.74043,4.83656 5.47266,7.34375 1.73222,2.5072 3.37447,5.07133 4.92968,7.68164 1.55524,2.61034 3.02465,5.26674 4.41211,7.96094 1.3875,2.6942 2.69289,5.42485 3.92188,8.18359 1.22898,2.75878 2.38121,5.54558 3.46094,8.34961 1.07971,2.80406 2.08763,5.62701 3.02734,8.45703 0.93971,2.83006 1.81021,5.66714 2.61914,8.50391 0.80893,2.83677 1.55479,5.67193 2.24219,8.49609 1.37479,5.6484 2.5168,11.25202 3.46094,16.73438 0.9441,5.48234 1.69189,10.8438 2.27929,16.00586 0.40749,3.58088 0.91407,10.27539 0.91406,10.27539 -3.98456,-1.00848 -7.69877,-2.14048 -11.15624,-3.38672 -3.45746,-1.24624 -6.6589,-2.60564 -9.61524,-4.07227 -2.95633,-1.4666 -5.66726,-3.03933 -8.14844,-4.70898 -2.48116,-1.66965 -4.73168,-3.43768 -6.76367,-5.29297 -2.03198,-1.85529 -3.84631,-3.79872 -5.45508,-5.82226 -1.60877,-2.02357 -3.01307,-4.12632 -4.22461,-6.30079 -1.21152,-2.17444 -2.23004,-4.42053 -3.07031,-6.72851 -0.84025,-2.30798 -1.50113,-4.67937 -1.99609,-7.10352 -0.49497,-2.42412 -0.82435,-4.90092 -1,-7.42382 -0.17565,-2.52293 -0.19774,-5.09099 -0.0801,-7.69532 0.1177,-2.60431 0.37471,-5.2457 0.75976,-7.91406 0.38508,-2.66836 0.89698,-5.36311 1.52344,-8.07812 0.62648,-2.71504 1.36708,-5.44906 2.20899,-8.19336 0.84189,-2.74431 1.78506,-5.49965 2.8164,-8.25586 1.03136,-2.75623 2.15087,-5.51486 3.34571,-8.26563 1.19482,-2.75077 2.4665,-5.49472 3.79882,-8.22265 0.0911,-0.18649 0.20327,-0.36445 0.29493,-0.55079 z m 206.91012,218.8379 c 4.8114,0.0144 9.797,0.23688 14.9629,0.67968 0,0 -0.2857,2.50068 -1.0371,6.95117 -0.3757,2.22527 -0.868,4.93729 -1.498,8.06836 -0.6301,3.13111 -1.3995,6.68103 -2.3282,10.58008 -0.9286,3.89908 -2.0174,8.14853 -3.289,12.67774 -1.2717,4.52916 -2.7258,9.33991 -4.3848,14.36132 -1.659,5.02146 -3.5226,10.2531 -5.6133,15.62891 -2.09062,5.37583 -4.40794,10.89594 -6.97458,16.48828 -2.56659,5.59237 -5.3818,11.25867 -8.46875,16.92969 -1.54347,2.83553 -3.15603,5.67264 -4.83789,8.50195 -1.68186,2.82935 -3.43397,5.65117 -5.25976,8.45704 -1.82579,2.806 -3.7259,5.5961 -5.70117,8.3613 -1.97524,2.7654 -4.02598,5.5055 -6.15626,8.2129 -2.13023,2.7074 -4.34006,5.3814 -6.63085,8.0137 -2.29084,2.6323 -4.66222,5.2237 -7.11915,7.7637 -2.45688,2.5398 -4.99838,5.0286 -7.62695,7.4589 -2.62856,2.4302 -5.34464,4.802 -8.15039,7.1055 -2.80574,2.3036 -5.70294,4.5397 -8.6914,6.6992 -2.98843,2.1596 -6.06937,4.242 -9.2461,6.2403 -3.17672,1.9982 -6.44783,3.9127 -9.81836,5.7324 -3.37049,1.8197 -6.84032,3.5459 -10.41015,5.1699 -3.56988,1.624 -7.24088,3.1456 -11.01563,4.5566 -3.77475,1.411 -7.65352,2.7118 -11.63867,3.8926 v -40.1074 c 0.17085,-2.8661 0.27515,-5.5769 0.54101,-8.6348 0.48755,-5.6071 1.14911,-11.5087 2.03321,-17.5956 0.88408,-6.0869 1.99077,-12.3605 3.37109,-18.71296 0.69016,-3.17623 1.44835,-6.37361 2.28125,-9.57617 0.83291,-3.20253 1.7404,-6.4112 2.72852,-9.61328 0.98811,-3.20208 2.0571,-6.39738 3.21289,-9.57227 1.15577,-3.17484 2.39847,-6.33024 3.73437,-9.45117 1.33592,-3.12088 2.76646,-6.20786 4.29492,-9.24804 1.52851,-3.04023 3.15513,-6.03404 4.88868,-8.9668 1.73351,-2.93277 3.57434,-5.80494 5.52539,-8.60352 1.95101,-2.79854 4.01234,-5.52256 6.19336,-8.16015 2.18098,-2.63764 4.48089,-5.18874 6.90429,-7.63867 2.42345,-2.44994 4.9721,-4.79964 7.65039,-7.03516 2.67833,-2.23552 5.48601,-4.35726 8.43164,-6.35156 2.94568,-1.99434 6.02843,-3.86151 9.25391,-5.58789 3.22548,-1.72643 6.59557,-3.31242 10.11328,-4.74414 3.51775,-1.43173 7.18342,-2.70999 11.00586,-3.82032 3.82247,-1.11032 7.80175,-2.05228 11.94141,-2.81445 4.13963,-0.76217 8.44088,-1.34321 12.91015,-1.73047 4.46931,-0.38726 9.1066,-0.58077 13.91794,-0.5664 z m -297.88473,1.46289 c 4.81141,-0.0144 9.44863,0.17914 13.91797,0.5664 4.4693,0.38726 8.77049,0.9683 12.91015,1.73047 4.13969,0.76217 8.11891,1.70412 11.94141,2.81445 3.82247,1.11034 7.48809,2.38858 11.00586,3.82032 3.51774,1.43174 6.88778,3.01771 10.11328,4.74414 3.2255,1.7264 6.30821,3.59354 9.25391,5.58789 2.94566,1.99433 5.75329,4.11603 8.43164,6.35156 2.67831,2.23553 5.22693,4.58521 7.65039,7.03516 2.42343,2.44995 4.72329,5.00101 6.90429,7.63867 2.18103,2.63763 4.24232,5.36159 6.19336,8.16015 1.95106,2.7986 3.79186,5.67073 5.52539,8.60352 1.73356,2.93279 3.36017,5.92656 4.88867,8.9668 1.52848,3.0402 2.95901,6.12713 4.29493,9.24804 1.33591,3.12094 2.57858,6.27631 3.73437,9.45118 1.15579,3.17489 2.22477,6.37015 3.21289,9.57226 0.98812,3.20211 1.89561,6.41073 2.72852,9.61328 0.83291,3.20257 1.59108,6.39991 2.28125,9.57617 1.38033,6.35267 2.48699,12.62597 3.37109,18.71287 0.8841,6.087 1.54566,11.9884 2.03321,17.5957 0.26586,3.0579 0.37016,5.7687 0.54101,8.6348 v 40.1074 c -3.98518,-1.1808 -7.8639,-2.4816 -11.63867,-3.8926 -3.77478,-1.4111 -7.44573,-2.9326 -11.01563,-4.5566 -3.56986,-1.624 -7.03963,-3.3502 -10.41015,-5.1699 -3.37055,-1.8197 -6.64163,-3.7342 -9.81836,-5.7324 -3.17675,-1.9983 -6.25761,-4.0807 -9.2461,-6.2403 -2.98845,-2.1595 -5.88564,-4.3956 -8.6914,-6.6992 -2.80576,-2.3035 -5.52182,-4.6753 -8.15039,-7.1055 -2.62858,-2.4304 -5.17001,-4.9191 -7.62696,-7.459 -2.45691,-2.54 -4.82829,-5.1313 -7.11914,-7.7636 -2.29081,-2.6323 -4.50056,-5.3063 -6.63086,-8.0137 -2.13026,-2.7074 -4.18097,-5.4474 -6.15625,-8.2129 -1.97524,-2.7652 -3.87536,-5.5553 -5.70117,-8.3613 -1.8258,-2.8059 -3.57789,-5.62769 -5.25976,-8.45705 -1.68187,-2.82934 -3.29442,-5.66641 -4.83789,-8.50195 -3.08697,-5.67106 -5.90214,-11.33728 -8.46875,-16.92969 -2.56665,-5.59238 -4.88396,-11.11241 -6.97461,-16.48828 -2.09066,-5.37585 -3.95431,-10.60742 -5.61328,-15.62891 -1.65901,-5.02145 -3.11309,-9.83212 -4.38477,-14.36132 -1.27168,-4.52923 -2.36038,-8.77863 -3.28906,-12.67774 -0.92869,-3.89908 -1.69811,-7.44895 -2.32813,-10.58008 -0.63002,-3.13109 -1.12236,-5.84308 -1.49804,-8.06836 -0.75137,-4.45053 -1.03711,-6.95117 -1.03711,-6.95117 5.16598,-0.4428 10.15144,-0.66528 14.96289,-0.67968 z"
       inkscape:label="основа" />
    <circle
       style="fill:none;fill-rule:evenodd;stroke:#976906;stroke-width:32.4891;stroke-dasharray:none;stroke-opacity:1"
       id="path1"
       cx="573.81244"
       cy="825.93732"
       r="367.88287" />
  </g>
</svg>
